<?xml version="1.0" encoding="utf-8"?>
<svg version="1.1" xmlns:xlink="http://www.w3.org/1999/xlink" width="25px" height="20px" xmlns="http://www.w3.org/2000/svg">
  <g transform="matrix(1 0 0 1 -435 -67 )">
    <path d="M 15.4459635416667 12.3567708333333  C 16.259765625 11.7057291666667  16.6666666666667 10.9201388888889  16.6666666666667 10  C 16.6666666666667 9.07986111111111  16.259765625 8.29427083333333  15.4459635416667 7.64322916666667  C 14.6321614583333 6.9921875  13.6501736111111 6.66666666666667  12.5 6.66666666666667  C 11.3498263888889 6.66666666666667  10.3678385416667 6.9921875  9.55403645833333 7.64322916666667  C 8.740234375 8.29427083333333  8.33333333333333 9.07986111111111  8.33333333333333 10  C 8.33333333333333 10.9201388888889  8.740234375 11.7057291666667  9.55403645833333 12.3567708333333  C 10.3678385416667 13.0078125  11.3498263888889 13.3333333333333  12.5 13.3333333333333  C 13.6501736111111 13.3333333333333  14.6321614583333 13.0078125  15.4459635416667 12.3567708333333  Z M 24.8697916666667 8.27473958333333  C 24.9565972222222 8.36588541666667  25 8.46788194444444  25 8.58072916666667  L 25 11.4713541666667  C 25 11.5755208333333  24.9565972222222 11.6753472222222  24.8697916666667 11.7708333333333  C 24.7829861111111 11.8663194444444  24.6744791666667 11.9227430555556  24.5442708333333 11.9401041666667  L 21.533203125 12.3046875  C 21.3270399305556 12.7734375  21.1154513888889 13.1684027777778  20.8984375 13.4895833333333  C 21.2782118055556 13.9236111111111  21.8587239583333 14.5225694444444  22.6399739583333 15.2864583333333  C 22.7484809027778 15.390625  22.802734375 15.4991319444444  22.802734375 15.6119791666667  C 22.802734375 15.7248263888889  22.75390625 15.8246527777778  22.65625 15.9114583333333  C 22.36328125 16.2326388888889  21.826171875 16.7013888888889  21.044921875 17.3177083333333  C 20.263671875 17.9340277777778  19.7536892361111 18.2421875  19.5149739583333 18.2421875  C 19.384765625 18.2421875  19.2437065972222 18.203125  19.091796875 18.125  L 16.845703125 16.71875  C 16.3682725694444 16.9184027777778  15.8745659722222 17.0833333333333  15.3645833333333 17.2135416666667  C 15.1909722222222 18.3940972222222  15.0336371527778 19.2013888888889  14.892578125 19.6354166666667  C 14.8166232638889 19.8784722222222  14.6213107638889 20  14.306640625 20  L 10.693359375 20  C 10.5414496527778 20  10.4085286458333 19.9631076388889  10.2945963541667 19.8893229166667  C 10.1806640625 19.8155381944444  10.1182725694444 19.7222222222222  10.107421875 19.609375  L 9.65169270833333 17.2135416666667  C 9.12000868055556 17.0746527777778  8.63172743055556 16.9140625  8.18684895833333 16.7317708333333  L 5.89192708333333 18.125  C 5.78342013888889 18.203125  5.64778645833333 18.2421875  5.48502604166667 18.2421875  C 5.33311631944444 18.2421875  5.19748263888889 18.1944444444444  5.078125 18.0989583333333  C 3.7109375 17.109375  2.81575520833333 16.3802083333333  2.392578125 15.9114583333333  C 2.31662326388889 15.8246527777778  2.27864583333333 15.7248263888889  2.27864583333333 15.6119791666667  C 2.27864583333333 15.5078125  2.32204861111111 15.4079861111111  2.40885416666667 15.3125  C 2.57161458333333 15.1302083333333  2.84830729166667 14.8415798611111  3.23893229166667 14.4466145833333  C 3.62955729166667 14.0516493055556  3.92252604166667 13.7456597222222  4.11783854166667 13.5286458333333  C 3.82486979166667 13.0946180555556  3.60243055555556 12.6649305555556  3.45052083333333 12.2395833333333  L 0.472005208333333 11.8880208333333  C 0.330946180555556 11.8706597222222  0.217013888888889 11.81640625  0.130208333333333 11.7252604166667  C 0.0434027777777778 11.6341145833333  0 11.5321180555556  0 11.4192708333333  L 0 8.52864583333333  C 0 8.42447916666667  0.0434027777777778 8.32465277777778  0.130208333333333 8.22916666666667  C 0.217013888888889 8.13368055555556  0.320095486111111 8.07725694444444  0.439453125 8.05989583333333  L 3.466796875 7.6953125  C 3.61870659722222 7.29600694444444  3.83029513888889 6.89670138888889  4.1015625 6.49739583333333  C 3.66753472222222 6.00260416666667  3.08702256944444 5.40364583333333  2.36002604166667 4.70052083333333  C 2.25151909722222 4.59635416666667  2.197265625 4.4921875  2.197265625 4.38802083333333  C 2.197265625 4.30121527777778  2.24609375 4.20138888888889  2.34375 4.08854166666667  C 2.62586805555556 3.77604166666667  3.16026475694444 3.30946180555555  3.94694010416667 2.68880208333333  C 4.73361545138889 2.06814236111111  5.24631076388889 1.7578125  5.48502604166667 1.7578125  C 5.62608506944444 1.7578125  5.76714409722222 1.80121527777778  5.908203125 1.88802083333333  L 8.154296875 3.28125  C 8.63172743055556 3.08159722222222  9.12543402777778 2.91666666666667  9.63541666666667 2.78645833333333  C 9.80902777777778 1.60590277777778  9.96636284722222 0.798611111111109  10.107421875 0.364583333333333  C 10.1833767361111 0.121527777777777  10.3786892361111 0  10.693359375 0  L 14.306640625 0  C 14.4585503472222 0  14.5914713541667 0.0368923611111094  14.7054036458333 0.110677083333333  C 14.8193359375 0.184461805555554  14.8817274305556 0.277777777777777  14.892578125 0.390625  L 15.3483072916667 2.78645833333333  C 15.8799913194444 2.92534722222222  16.3682725694444 3.0859375  16.8131510416667 3.26822916666667  L 19.1243489583333 1.875  C 19.2220052083333 1.796875  19.3522135416667 1.7578125  19.5149739583333 1.7578125  C 19.6560329861111 1.7578125  19.7916666666667 1.80121527777778  19.921875 1.88802083333333  C 21.3216145833333 2.92100694444444  22.216796875 3.65885416666667  22.607421875 4.1015625  C 22.6833767361111 4.17100694444444  22.7213541666667 4.26649305555555  22.7213541666667 4.38802083333333  C 22.7213541666667 4.4921875  22.6779513888889 4.59201388888889  22.5911458333333 4.6875  C 22.4283854166667 4.86979166666667  22.1516927083333 5.15842013888889  21.7610677083333 5.55338541666667  C 21.3704427083333 5.94835069444444  21.0774739583333 6.25434027777778  20.8821614583333 6.47135416666667  C 21.1642795138889 6.90538194444444  21.38671875 7.33072916666667  21.5494791666667 7.74739583333333  L 24.5279947916667 8.11197916666667  C 24.6690538194444 8.12934027777778  24.7829861111111 8.18359375  24.8697916666667 8.27473958333333  Z " fill-rule="nonzero" fill="#000000" stroke="none" transform="matrix(1 0 0 1 435 67 )" />
  </g>
</svg>