<?xml version="1.0" encoding="utf-8"?>
<svg version="1.1" xmlns:xlink="http://www.w3.org/1999/xlink" width="28px" height="50px" xmlns="http://www.w3.org/2000/svg">
  <g transform="matrix(1 0 0 1 -431 -325 )">
    <path d="M 27.5189003436426 23.8476953907816  C 27.8396334478809 24.1816967267869  28 24.5657982631931  28 25  C 28 25.4342017368069  27.8396334478809 25.8183032732131  27.5189003436426 26.1523046092184  L 5.09965635738832 49.498997995992  C 4.77892325315006 49.8329993319973  4.41008018327606 50  3.99312714776632 50  C 3.57617411225659 50  3.20733104238259 49.8329993319973  2.88659793814433 49.498997995992  L 0.481099656357388 46.9939879759519  C 0.16036655211913 46.6599866399466  0 46.2758851035404  0 45.8416833667335  C 0 45.4074816299265  0.16036655211913 45.0233800935204  0.481099656357388 44.689378757515  L 19.3883161512027 25  L 0.481099656357388 5.31062124248497  C 0.16036655211913 4.97661990647962  0 4.59251837007348  0 4.15831663326653  C 0 3.72411489645958  0.16036655211913 3.34001336005343  0.481099656357388 3.00601202404809  L 2.88659793814433 0.501002004008017  C 3.20733104238259 0.16700066800267  3.57617411225659 0  3.99312714776632 0  C 4.41008018327606 0  4.77892325315006 0.16700066800267  5.09965635738832 0.501002004008017  L 27.5189003436426 23.8476953907816  Z " fill-rule="nonzero" fill="#000000" stroke="none" transform="matrix(1 0 0 1 431 325 )" />
  </g>
</svg>