<?xml version="1.0" encoding="utf-8"?>
<svg version="1.1" xmlns:xlink="http://www.w3.org/1999/xlink" width="10px" height="12px" xmlns="http://www.w3.org/2000/svg">
  <g transform="matrix(1 0 0 1 -330 -101 )">
    <path d="M 335 101  C 337.8 101  340 103.64  340 107  C 340 110.36  337.8 113  335 113  C 332.2 113  330 110.36  330 107  C 330 103.64  332.2 101  335 101  Z " fill-rule="nonzero" fill="#ffffff" stroke="none" />
    <path d="M 335 101.5  C 337.52 101.5  339.5 103.92  339.5 107  C 339.5 110.08  337.52 112.5  335 112.5  C 332.48 112.5  330.5 110.08  330.5 107  C 330.5 103.92  332.48 101.5  335 101.5  Z " stroke-width="1" stroke="#797979" fill="none" />
  </g>
</svg>