<?xml version="1.0" encoding="utf-8"?>
<svg version="1.1" xmlns:xlink="http://www.w3.org/1999/xlink" width="19px" height="16px" xmlns="http://www.w3.org/2000/svg">
  <g transform="matrix(1 0 0 1 -439 -69 )">
    <path d="M 0 3.42857142857143  L 9.5 0  L 19 3.42857142857143  L 19 4.57142857142857  L 17.7333333333333 4.57142857142857  C 17.7333333333333 4.72619047619048  17.6657118055556 4.86011904761905  17.53046875 4.97321428571429  C 17.3952256944444 5.08630952380952  17.2352430555556 5.14285714285714  17.0505208333333 5.14285714285714  L 1.94947916666667 5.14285714285714  C 1.76475694444444 5.14285714285714  1.60477430555556 5.08630952380952  1.46953125 4.97321428571429  C 1.33428819444444 4.86011904761905  1.26666666666667 4.72619047619048  1.26666666666667 4.57142857142857  L 0 4.57142857142857  L 0 3.42857142857143  Z M 2.53333333333333 12.5714285714286  L 2.53333333333333 5.71428571428571  L 5.06666666666667 5.71428571428571  L 5.06666666666667 12.5714285714286  L 6.33333333333333 12.5714285714286  L 6.33333333333333 5.71428571428571  L 8.86666666666667 5.71428571428571  L 8.86666666666667 12.5714285714286  L 10.1333333333333 12.5714285714286  L 10.1333333333333 5.71428571428571  L 12.6666666666667 5.71428571428571  L 12.6666666666667 12.5714285714286  L 13.9333333333333 12.5714285714286  L 13.9333333333333 5.71428571428571  L 16.4666666666667 5.71428571428571  L 16.4666666666667 12.5714285714286  L 17.0505208333333 12.5714285714286  C 17.2352430555556 12.5714285714286  17.3952256944444 12.6279761904762  17.53046875 12.7410714285714  C 17.6657118055556 12.8541666666667  17.7333333333333 12.9880952380952  17.7333333333333 13.1428571428571  L 17.7333333333333 13.7142857142857  L 1.26666666666667 13.7142857142857  L 1.26666666666667 13.1428571428571  C 1.26666666666667 12.9880952380952  1.33428819444444 12.8541666666667  1.46953125 12.7410714285714  C 1.60477430555556 12.6279761904762  1.76475694444444 12.5714285714286  1.94947916666667 12.5714285714286  L 2.53333333333333 12.5714285714286  Z M 0.6828125 14  L 18.3171875 14  C 18.5019097222222 14.2857142857143  18.6618923611111 14.3422619047619  18.7971354166667 14.4553571428571  C 18.9323784722222 14.5684523809524  19 14.702380952381  19 14.8571428571429  L 19 16  L 0 16  L 0 14.8571428571429  C 0 14.702380952381  0.0676215277777778 14.5684523809524  0.202864583333333 14.4553571428571  C 0.338107638888889 14.3422619047619  0.498090277777778 14.2857142857143  0.6828125 14  Z " fill-rule="nonzero" fill="#000000" stroke="none" transform="matrix(1 0 0 1 439 69 )" />
  </g>
</svg>